<svg width="548" height="82" viewBox="0 0 548 82" fill="none" xmlns="http://www.w3.org/2000/svg">
<path d="M11.4958 68L16.7629 53.1705H37.9333L43.2004 68H49.8481L30.6208 15.6364H24.0754L4.84811 68H11.4958ZM18.7572 47.5455L27.1436 23.9205H27.5527L35.939 47.5455H18.7572ZM56.5644 15.6364V68H62.4962V28.2159H63.0075L79.3712 68H85.0985L101.462 28.2159H101.973V68H107.905V15.6364H100.337L82.5416 59.1023H81.928L64.1325 15.6364H56.5644ZM119.179 68H151.19V62.375H125.52V44.5795H149.145V38.9545H125.52V21.2614H150.781V15.6364H119.179V68ZM160.77 68H191.452V62.375H167.111V15.6364H160.77V68ZM206.171 15.6364H199.83V68H206.171V15.6364ZM217.445 68H249.456V62.375H223.786V44.5795H247.411V38.9545H223.786V21.2614H249.047V15.6364H217.445V68ZM277.846 68H296.767C309.142 68 314.255 61.9659 314.255 54.0909C314.255 45.8068 308.528 41.3068 303.721 41V40.4886C308.221 39.2614 312.21 36.2955 312.21 29.5455C312.21 21.875 307.096 15.6364 296.153 15.6364H277.846V68ZM284.187 62.375V44.1705H297.074C303.926 44.1705 308.221 48.7727 308.221 54.0909C308.221 58.6932 305.051 62.375 296.767 62.375H284.187ZM284.187 38.6477V21.2614H296.153C303.108 21.2614 306.176 24.9432 306.176 29.5455C306.176 35.0682 301.676 38.6477 295.949 38.6477H284.187ZM367.416 41.8182C367.416 25.25 357.7 14.9205 344.303 14.9205C330.905 14.9205 321.189 25.25 321.189 41.8182C321.189 58.3864 330.905 68.7159 344.303 68.7159C357.7 68.7159 367.416 58.3864 367.416 41.8182ZM361.28 41.8182C361.28 55.4205 353.814 62.7841 344.303 62.7841C334.791 62.7841 327.325 55.4205 327.325 41.8182C327.325 28.2159 334.791 20.8523 344.303 20.8523C353.814 20.8523 361.28 28.2159 361.28 41.8182ZM392.797 68C408.752 68 417.752 58.0795 417.752 41.7159C417.752 25.4545 408.752 15.6364 393.513 15.6364H376.638V68H392.797ZM382.979 62.375V21.2614H393.104C405.377 21.2614 411.615 29.0341 411.615 41.7159C411.615 54.5 405.377 62.375 392.388 62.375H382.979ZM433.289 15.6364H426.948V68H433.289V15.6364ZM488.745 41.8182C488.745 25.25 479.029 14.9205 465.631 14.9205C452.233 14.9205 442.517 25.25 442.517 41.8182C442.517 58.3864 452.233 68.7159 465.631 68.7159C479.029 68.7159 488.745 58.3864 488.745 41.8182ZM482.608 41.8182C482.608 55.4205 475.142 62.7841 465.631 62.7841C456.12 62.7841 448.654 55.4205 448.654 41.8182C448.654 28.2159 456.12 20.8523 465.631 20.8523C475.142 20.8523 482.608 28.2159 482.608 41.8182ZM532.33 15.6364V49.7955C532.33 57.4659 527.063 62.9886 518.319 62.9886C509.575 62.9886 504.307 57.4659 504.307 49.7955V15.6364H497.967V50.3068C497.967 61.0455 505.995 68.9205 518.319 68.9205C530.643 68.9205 538.671 61.0455 538.671 50.3068V15.6364H532.33Z" fill="black"/>
<circle cx="203.5" cy="6.5" r="5.5" fill="#59D4FB"/>
<circle cx="430.5" cy="6.5" r="5.5" fill="#59D4FB"/>
<path d="M138 1L132 12H137L146 1H145.5H138Z" fill="#59D4FB" stroke="#59D4FB"/>
</svg>
